# xmcd CD database file
#
# Track frame offsets:
#	150
#	23852
#	31700
#
# Disc length: 737 seconds
#
# Revision: 0
# Processed by: cddbd v1.5PL3 Copyright (c) Steve Scherf et al.
# Submitted via: CDex 1.51
#
DISCID=1602df03
DTITLE=聖飢魔II - TEENAGE DREAM
DYEAR=1994
DGENRE=Rock
TTITLE0=TEENAGE DREAM
TTITLE1=CHINESE MAGIC HERB
TTITLE2=TEENAGE DREAM [カラオケ・バージョン]
EXTD=YEAR: 1994
EXTT0=
EXTT1=
EXTT2=
PLAYORDER=
